<svg width="412" height="412" viewBox="0 0 412 412" fill="none" xmlns="http://www.w3.org/2000/svg">
<path d="M278.075 71.0947C278.075 71.0947 252.083 96.3068 223.971 106.471C15.7959 181.751 105.636 332.017 108.5 332.5C108.5 332.5 118.13 308.609 133.899 297.017C233.963 223.473 254.3 138.821 254.3 138.821C254.3 138.821 231.846 240.685 142.824 304.067C123.163 318.059 110.135 342.567 104.5 377C104.5 377 116.007 384.525 122 383C124.337 367.753 131.368 349.94 139.628 336.898C264.047 351.707 304.796 251.477 310.12 216.528C322.684 133.985 278.075 71.0947 278.075 71.0947Z" stroke="#118A07" stroke-width="14" stroke-linejoin="round"/>
<circle cx="206" cy="206" r="201" stroke="#118A07" stroke-width="10"/>
</svg>
