<svg xmlns="http://www.w3.org/2000/svg" width="228.951" height="237.232" viewBox="0 0 228.951 237.232">
  <g id="logo" transform="translate(-306.469 -179.024)">
    <g id="Group_4" data-name="Group 4">
      <path id="Path_29" data-name="Path 29" d="M306.469,179.024V416.256H535.42V179.024Z" fill="#ffad00"/>
    </g>
    <g id="Group_6" data-name="Group 6">
      <g id="Group_5" data-name="Group 5">
        <path id="Path_30" data-name="Path 30" d="M374.729,302.85V260.895H385.17c9.87,0,13.858,5.125,13.858,13.924s-4.557,14.428-13.352,14.428h-.826v13.6Zm10.121-22.906h1.078c2.28,0,3.289-1.332,3.289-4.744s-1.076-4.75-3.289-4.75H384.85Z" fill="#e74f28"/>
        <path id="Path_31" data-name="Path 31" d="M408.553,273.737c0-9.933,6.518-14.107,13.476-14.107s13.477,4.174,13.477,14.045V290c0,10.122-6.518,14.11-13.477,14.11s-13.476-3.8-13.476-14.048Zm16.83.254c0-2.846-1.518-3.986-3.354-3.986s-3.353,1.14-3.353,3.986v15.885c0,2.783,1.52,3.924,3.353,3.924s3.354-1.141,3.354-3.924Z" fill="#e74f28"/>
      </g>
    </g>
    <g id="Group_8" data-name="Group 8">
      <g id="Group_7" data-name="Group 7">
        <path id="Path_32" data-name="Path 32" d="M348.7,231.474h-.317v20.5h-10.06V210.018h10.06v17.721h.317l5.756-17.721h10.757l-6.646,18.731V229l8.42,22.969H355.661Z" fill="#fffbe4"/>
        <path id="Path_33" data-name="Path 33" d="M373.012,222.866c0-9.935,6.52-14.111,13.479-14.111s13.478,4.176,13.478,14.047v16.324c0,10.127-6.519,14.113-13.478,14.113s-13.479-3.8-13.479-14.047Zm16.832.252c0-2.846-1.519-3.986-3.353-3.986s-3.354,1.14-3.354,3.986V239c0,2.783,1.52,3.922,3.354,3.922s3.353-1.139,3.353-3.922Z" fill="#fffbe4"/>
        <path id="Path_34" data-name="Path 34" d="M408.9,210.018h10.123v28.858c0,2.973,1.205,3.986,2.973,3.986s3.038-1.013,3.038-3.986V210.018h10.121v28.731c0,11.137-5.945,14.49-13.1,14.49s-13.16-3.353-13.16-14.49Z" fill="#fffbe4"/>
        <path id="Path_35" data-name="Path 35" d="M451.1,233.751c-6.012-4.432-7.532-8.416-7.532-13.479,0-7.087,6.2-11.517,12.657-11.517,6.263,0,12.593,3.418,12.275,14.871h-8.984c.125-3.8-.76-5.887-3.1-5.887-2.086,0-2.912,1.141-2.912,2.723,0,1.076.445,2.594,2.531,4.176l5.569,4.175c5.949,4.495,7.089,8.227,7.089,12.276,0,7.529-5.822,12.15-12.72,12.15-6.707,0-12.909-3.543-12.592-14.806h8.988c-.127,3.986.947,5.63,3.225,5.63a2.435,2.435,0,0,0,2.72-2.72c0-.951-.126-2.4-2.531-4.178Z" fill="#fffbe4"/>
        <path id="Path_36" data-name="Path 36" d="M476.4,210.018h23.106v10.063H486.523V225.4H499v9.491H486.523v6.961H499.76v10.123H476.4Z" fill="#fffbe4"/>
        <path id="Path_37" data-name="Path 37" d="M348.7,282.349h-.317v20.5h-10.06V260.895h10.06v17.719h.317l5.756-17.719h10.757l-6.646,18.729v.254l8.42,22.972H355.661Z" fill="#fffbe4"/>
      </g>
    </g>
    <g id="Group_10" data-name="Group 10">
      <g id="Group_9" data-name="Group 9">
        <path id="Path_38" data-name="Path 38" d="M486.541,282.349h-.316v20.5H476.164V260.895h10.061v17.717h.316l5.756-17.717h10.758l-6.645,18.731v.254l8.416,22.97H493.5Z" fill="#19282d"/>
        <path id="Path_39" data-name="Path 39" d="M337.063,324.613c0-9.933,6.518-14.109,13.479-14.109s13.476,4.176,13.476,14.045v16.328c0,10.123-6.517,14.109-13.476,14.109s-13.479-3.795-13.479-14.047Zm16.83.254c0-2.848-1.519-3.986-3.351-3.986s-3.356,1.138-3.356,3.986V340.75c0,2.785,1.52,3.922,3.356,3.922s3.351-1.137,3.351-3.922Z" fill="#19282d"/>
        <path id="Path_40" data-name="Path 40" d="M373.747,311.768H383.87v28.855c0,2.975,1.2,3.986,2.974,3.986s3.041-1.011,3.041-3.986V311.768h10.123V340.5c0,11.137-5.949,14.49-13.1,14.49s-13.164-3.353-13.164-14.49Z" fill="#19282d"/>
        <path id="Path_41" data-name="Path 41" d="M417.1,335.5c-6.008-4.428-7.527-8.414-7.527-13.477,0-7.085,6.2-11.515,12.652-11.515,6.265,0,12.591,3.416,12.277,14.869h-8.986c.129-3.8-.758-5.887-3.1-5.887-2.087,0-2.91,1.141-2.91,2.723,0,1.076.444,2.594,2.529,4.178l5.569,4.173c5.947,4.495,7.085,8.229,7.085,12.278,0,7.529-5.818,12.148-12.716,12.148-6.707,0-12.908-3.541-12.592-14.806h8.987c-.129,3.988.949,5.633,3.226,5.633a2.437,2.437,0,0,0,2.722-2.721c0-.949-.127-2.407-2.532-4.178Z" fill="#19282d"/>
        <path id="Path_42" data-name="Path 42" d="M453.232,333.219h-.316v20.5H442.853V311.768h10.063v17.718h.316l5.758-17.718h10.758L463.1,330.5v.25l8.416,22.971H460.191Z" fill="#19282d"/>
        <path id="Path_43" data-name="Path 43" d="M476.8,311.768h10.121v28.855c0,2.975,1.205,3.986,2.972,3.986s3.038-1.011,3.038-3.986V311.768h10.125V340.5c0,11.137-5.946,14.49-13.1,14.49s-13.16-3.353-13.16-14.49Z" fill="#19282d"/>
      </g>
    </g>
    <g id="Group_11" data-name="Group 11">
      <path id="Path_44" data-name="Path 44" d="M350.022,377.994a27.844,27.844,0,0,1,1.568,2.569h.116s-.116-1.542-.116-3.682v-7.5h3.454v16.807h-3.225l-6.191-8.532a23.249,23.249,0,0,1-1.713-2.74H343.8a37.693,37.693,0,0,1,.172,3.852v7.42H340.52V369.377h3.338Z" fill="#fffbe4"/>
      <path id="Path_45" data-name="Path 45" d="M369.088,373H371.4v13.184h-2.969l-.4-2.284c-.573,2-2.2,2.625-4.139,2.625-2.853,0-5.25-2.283-5.25-6.677,0-4.479,2.111-7.16,5.879-7.16a3.682,3.682,0,0,1,3.68,2.025Zm-1.054,5.166a2.721,2.721,0,0,0-2.826-2.939c-1.655,0-3.139,1.169-3.139,4.478,0,2.711,1.2,4.2,3.111,4.2a2.916,2.916,0,0,0,2.854-3.082Z" fill="#fffbe4"/>
      <path id="Path_46" data-name="Path 46" d="M383.942,367.123h3.4v19.061H384.37l-.4-2.284c-.572,2-2.2,2.625-4.138,2.625-2.881,0-5.25-2.283-5.25-6.677,0-4.479,2.111-7.16,5.878-7.16a3.5,3.5,0,0,1,3.481,2.052Zm.029,11.043a2.721,2.721,0,0,0-2.826-2.939c-1.654,0-3.139,1.169-3.139,4.478,0,2.711,1.2,4.2,3.112,4.2a2.924,2.924,0,0,0,2.853-3.109Z" fill="#fffbe4"/>
      <path id="Path_47" data-name="Path 47" d="M400.924,373h2.313v13.184h-2.969l-.4-2.284c-.573,2-2.2,2.625-4.139,2.625-2.853,0-5.25-2.283-5.25-6.677,0-4.479,2.111-7.16,5.879-7.16a3.682,3.682,0,0,1,3.68,2.025Zm-1.054,5.166a2.721,2.721,0,0,0-2.826-2.939c-1.655,0-3.139,1.169-3.139,4.478,0,2.711,1.2,4.2,3.111,4.2a2.916,2.916,0,0,0,2.854-3.082Z" fill="#fffbe4"/>
      <path id="Path_48" data-name="Path 48" d="M417.977,382.7c-.484,2.654-2.711,3.824-5.422,3.824-3.709,0-6.191-2.482-6.191-6.877s2.482-6.96,6.277-6.96c3.026,0,4.965,1.625,5.137,4.25l-2.91.771c-.229-1.484-.942-2.313-2.283-2.313-1.913,0-2.911,1.657-2.911,4.225,0,2.6,1.114,4.25,2.967,4.25a2.224,2.224,0,0,0,2.34-2.053Zm-6.363-11.5-3.766-4.424h3.225l.912,1.057a2.343,2.343,0,0,1,.6,1h.142a2.343,2.343,0,0,1,.6-1l.912-1.057h3.224L413.7,371.2Z" fill="#fffbe4"/>
      <path id="Path_49" data-name="Path 49" d="M424.006,375.539a4.1,4.1,0,0,1,4.222-2.851c2.084,0,3.911,1.2,3.911,4.136v9.36h-3.4v-8.163c0-1.511-.514-2.453-1.939-2.453-1.371,0-2.655.742-2.655,3.254v7.362h-3.4V373h2.852Z" fill="#fffbe4"/>
      <path id="Path_50" data-name="Path 50" d="M439.225,373v13.184h-3.4V373Zm-3.368-1.854,2.026-4.308h4.338l-3.311,4.308Z" fill="#fffbe4"/>
      <path id="Path_51" data-name="Path 51" d="M448.607,375.654V373h1.94v-1.141c0-3.681,2.312-4.965,5.023-4.965a7.659,7.659,0,0,1,3.053.6l-.543,2.854a4.194,4.194,0,0,0-2.2-.573c-1.17,0-1.94.514-1.94,2.2V373h3.368v2.654h-3.368v10.53h-3.4v-10.53Z" fill="#fffbe4"/>
      <path id="Path_52" data-name="Path 52" d="M458.66,379.535c0-4.48,2.483-6.847,6.25-6.847s6.248,2.367,6.248,6.847-2.482,6.99-6.248,6.99S458.66,384.014,458.66,379.535Zm3.367.028c0,2.912.942,4.308,2.883,4.308,1.969,0,2.91-1.4,2.91-4.308,0-2.825-.97-4.137-2.91-4.137C463,375.426,462.027,376.738,462.027,379.563Z" fill="#fffbe4"/>
      <path id="Path_53" data-name="Path 53" d="M477.48,375.539a4.1,4.1,0,0,1,4.223-2.851c2.084,0,3.91,1.2,3.91,4.136v9.36h-3.4v-8.163c0-1.511-.514-2.453-1.94-2.453-1.371,0-2.654.742-2.654,3.254v7.362h-3.4V373h2.853Z" fill="#fffbe4"/>
      <path id="Path_54" data-name="Path 54" d="M497.973,367.123h3.4v19.061H498.4L498,383.9c-.572,2-2.2,2.625-4.139,2.625-2.881,0-5.25-2.283-5.25-6.677,0-4.479,2.112-7.16,5.879-7.16a3.5,3.5,0,0,1,3.481,2.052ZM498,378.166a2.721,2.721,0,0,0-2.826-2.939c-1.655,0-3.139,1.169-3.139,4.478,0,2.711,1.2,4.2,3.111,4.2A2.925,2.925,0,0,0,498,380.791Z" fill="#fffbe4"/>
    </g>
  </g>
</svg>
