<svg xmlns="http://www.w3.org/2000/svg" width="181.614" height="195.843" viewBox="0 0 181.614 195.843">
  <g id="Group_1" data-name="Group 1" transform="translate(-372.515 -169.746)">
    <path id="Path_4" data-name="Path 4" d="M414.1,183.473l.149.1,12.731-3,11.161-10.365a1.96,1.96,0,0,1,2.845.331l4.941,7.412a6.729,6.729,0,0,1,.265.625l2.471,10.706a2.177,2.177,0,0,1-1.022,2.117l-15.818,7.565,11.869,7.253a3.516,3.516,0,0,1,.831,1.087l3.091,10.821,11.061,6.636,8.511-1.964v-3.448a1.909,1.909,0,0,1,2.661-1.706L498.388,230.7l30.174,3.262a2.307,2.307,0,0,1,1.631,1.44l8.759,37.421,12.684,1.492a2.136,2.136,0,0,1,1.668,1.809L554.128,300a2.679,2.679,0,0,1-.816,1.6l-10.706,7.413a3.321,3.321,0,0,1-1.389.308L528.053,307,508.6,322.561l-2.308,8.463a3.011,3.011,0,0,1-1.051,1.22l-22.983,10.3-4.038,21.532a1.9,1.9,0,0,1-3.2.948l-5.4-5.7-3.626,2.418a1.978,1.978,0,0,1-2.7-.684l-6.588-12.353a5.2,5.2,0,0,1-.228-.882v-6.679l-10.2-10.984a2.275,2.275,0,0,1-.264-2.19l3.354-6.037-7.847-6.42a3.27,3.27,0,0,1-.691-1.3l-.824-9.883a2.233,2.233,0,0,1,1.235-1.918L451.86,298.5l-7.263-2.421a4.828,4.828,0,0,1-.838-.565l-14.824-17.295a3.638,3.638,0,0,1-.455-1.22v-6.162l-6.17.617a2.523,2.523,0,0,1-1.75-.824l-2.459-3.689-9.307,3.579a2.248,2.248,0,0,1-2.146-.6l-8.493-10.809H384.243a2.239,2.239,0,0,1-1.808-1.368l-1.456-5.1-4.368-2.912a2.123,2.123,0,0,1-.662-2.353l4.486-9.72-5.148-7.354a2.2,2.2,0,0,1,.14-2.331l5.211-5.862-7.38-5.367a2.26,2.26,0,0,1-.684-2.109l5.765-17.294a2.934,2.934,0,0,1,1.161-1.184l14-4.941.258-.074.367,1.845-.625-1.771,20.6-7.755Zm.217,3.944a1.366,1.366,0,0,1-.4,0l-1.663,3.159a2.973,2.973,0,0,1-1.293.97l-16.358,3.272L381.619,199.4l-5.04,15.12,7.943,5.777a1.981,1.981,0,0,1,.3,2.771l-5.6,6.3,4.914,7.02a2.605,2.605,0,0,1,.162,1.867l-4.267,9.245,3.605,2.4a3.681,3.681,0,0,1,.765,1.052l1.256,4.4h13.406a2.922,2.922,0,0,1,1.478.721l8.2,10.438,9.417-3.622a2.171,2.171,0,0,1,2.234.713l2.671,4.006,7.11-.711a1.973,1.973,0,0,1,2.065,1.867v7.547l14.024,16.361,11.859,3.953a1.923,1.923,0,0,1,.059,3.55l-14.294,5.266.639,7.673,8.434,6.9a2.14,2.14,0,0,1,.449,2.367l-3.456,6.219,9.779,10.532a3.471,3.471,0,0,1,.508,1.279v6.957l5.384,10.1,3.22-2.147a2.128,2.128,0,0,1,2.4.272l3.962,4.182,3.54-18.881a2.776,2.776,0,0,1,1.08-1.367l23.065-10.34,2.238-8.2a4.081,4.081,0,0,1,.639-.978l20.589-16.471a3.088,3.088,0,0,1,1.5-.382l13.249,2.338,9.217-6.381-.732-21.252L537.209,276.4a2.329,2.329,0,0,1-1.617-1.44l-8.755-37.41L497.694,234.4c-.048,0-.538-.141-.581-.161l-26.163-11.96v2.019a2.188,2.188,0,0,1-1.463,1.83L458.781,228.6a3.36,3.36,0,0,1-1.382-.221l-12.353-7.412a3.46,3.46,0,0,1-.845-1.1l-3.094-10.827-14.194-8.674a1.905,1.905,0,0,1,.169-3.3l17.582-8.409-2.052-8.891-3.533-5.3-9.909,9.2a5.022,5.022,0,0,1-.853.455l-14,3.294Zm-20.559,3.737,15.6-3.119,2.041-3.879a1.976,1.976,0,0,1,2.705-.683Z" fill="#cbd5e8"/>
  </g>
</svg>
