<svg xmlns="http://www.w3.org/2000/svg" xmlns:xlink="http://www.w3.org/1999/xlink" width="154.636" height="228.626" viewBox="0 0 154.636 228.626">
  <defs>
    <linearGradient id="linear-gradient" x1="-0.17" y1="0.212" x2="1.158" y2="0.536" gradientUnits="objectBoundingBox">
      <stop offset="0" stop-color="#ffb514"/>
      <stop offset="0.464" stop-color="#ffb313"/>
      <stop offset="1" stop-color="#f69001"/>
    </linearGradient>
  </defs>
  <g id="Group_3" data-name="Group 3" transform="translate(-34.223 -11.483)">
    <path id="Path_24" data-name="Path 24" d="M73.648,22.8A76.8,76.8,0,0,0,45.539,127.707l63.753,110.428c1.522,2.632,3.989,2.632,5.5,0l63.763-110.428A76.8,76.8,0,0,0,150.446,22.8C138.332,15.8,85.766,15.8,73.648,22.8Z" fill="none"/>
    <path id="Path_26" data-name="Path 26" d="M111.036,11.483A76.825,76.825,0,0,0,44.524,126.695l63.76,110.432c1.521,2.631,3.984,2.631,5.5,0l63.759-110.432a76.824,76.824,0,0,0-66.51-115.212Z" fill="url(#linear-gradient)"/>
    <g id="Group_2" data-name="Group 2" style="mix-blend-mode: multiply;isolation: isolate">
      <path id="Path_27" data-name="Path 27" d="M114.651,16.4c-40.029,0-72.486,31.881-72.486,71.214s32.457,71.209,72.486,71.209,72.488-31.88,72.488-71.209S154.688,16.4,114.651,16.4Z" fill="none"/>
    </g>
    <path id="Path_28" data-name="Path 28" d="M99.778,24.818a52.327,52.327,0,1,0,52.328,52.326A52.325,52.325,0,0,0,99.778,24.818Z" transform="translate(11.258 11.258)" fill="#fff"/>
  </g>
</svg>
    