<svg height="512" width="512" xmlns="http://www.w3.org/2000/svg"><path d="M209.137 15.169c-14.507-11.731-33.508-11.826-45.041.102-13.676 14.175-13.679 37.264-.006 51.471a5.8 5.8 0 00.135.137l36.856 36.517c.193.192.397.373.61.542l.223.178c1.792 1.428 3.823 3.047 6.913 3.176a8.117 8.117 0 00.612 0c3.125-.125 5.164-1.75 6.963-3.185l.213-.169a7.68 7.68 0 00.611-.544l32.405-32.151 4.421-4.364.128-.13c13.71-14.21 13.708-37.306.002-51.476-11.52-11.947-30.533-11.851-45.045-.104zm34.307 41.103L209.15 90.275l-29.967-29.707-4.348-4.292c-8.083-8.469-8.066-22.172.05-30.584 7.153-7.4 18.761-4.393 26.065 2.207.535.481.967.889 1.322 1.225 1.488 1.406 3.526 3.333 6.866 3.333 3.37 0 5.386-1.918 6.857-3.319.354-.336.787-.75 1.345-1.251 7.298-6.593 18.906-9.604 26.052-2.192 8.139 8.413 8.155 22.113.052 30.577zM210.548 227.262c-10.016-3.842-21.288-2.244-30.925 4.382a41.932 41.932 0 00-4.443 3.521v-92.406c0-14.167-11.526-25.693-25.693-25.693-3.814 0-7.438.836-10.696 2.333-.201-14.011-11.648-25.345-25.69-25.345-10.944 0-20.313 6.887-24.008 16.559a25.533 25.533 0 00-12.377-3.183c-14.183 0-25.721 11.526-25.721 25.693v20.388a22.521 22.521 0 00-7.661-1.334c-12.667 0-23.369 10.391-23.369 22.691l.028 132.5c.13 20.356 6.417 31.749 12.878 38.734-4.204 1.988-7.126 6.258-7.126 11.208v57.726a7.5 7.5 0 0015 0v-55.128h142.189v136.951H40.745V452.5a7.5 7.5 0 00-15 0v46.957c0 6.839 5.563 12.403 12.402 12.403H185.56c6.823 0 12.374-5.564 12.374-12.403V357.31c0-4.85-2.798-9.047-6.856-11.085 5.151-8.508 8.564-17.368 10.171-26.464 4.604-26.108 11.122-43.253 15.881-55.771 3.463-9.11 5.751-15.129 5.79-20.681.051-7.473-4.11-12.871-12.372-16.047zm-7.438 31.397c-4.691 12.341-11.781 30.99-16.632 58.494-1.683 9.523-5.923 18.844-12.602 27.754H54.905c-1.228-1.095-2.595-2.083-4.002-3.099-6.652-4.8-15.762-11.374-15.91-34.489l-.028-132.452c0-4.024 3.989-7.689 8.369-7.689 4.224 0 7.661 3.449 7.661 7.689v41.374a7.5 7.5 0 0015 0v-83.117c0-5.896 4.809-10.693 10.721-10.693 5.896 0 10.693 4.797 10.693 10.693v84.59a7.5 7.5 0 0015 0v-97.938c0-5.912 4.797-10.722 10.693-10.722s10.693 4.81 10.693 10.722v91.618a7.5 7.5 0 0015 0v-68.636c0-5.896 4.797-10.693 10.693-10.693s10.693 4.797 10.693 10.693v123.223c-16.187 8.771-30.721 23.598-34.129 35.269a7.5 7.5 0 007.202 9.604 7.503 7.503 0 007.196-5.4c1.925-6.592 13.855-20.377 30.391-28.06 2.609-1.212 4.34-3.924 4.34-6.802 0-11.079 4.838-21.019 12.941-26.59 5.506-3.785 11.722-4.783 17.051-2.739 1.938.745 2.578 1.309 2.724 1.457.509 2.007-2.303 9.405-4.787 15.939zM478.468 357.567c-5.003-5.177-11.109-8.593-17.729-10.292v-59.962c0-5.356-3.238-9.965-7.853-11.975 5.836-9.461 9.682-19.306 11.451-29.398 5.055-28.605 12.197-47.392 17.412-61.109 3.762-9.896 6.248-16.435 6.291-22.38.057-7.854-4.34-13.536-13.073-16.89-10.724-4.115-22.808-2.396-33.149 4.714a45.248 45.248 0 00-5.96 4.898V52.53c0-15.105-12.289-27.394-27.393-27.394-4.458 0-8.669 1.07-12.393 2.967v-.71C396.072 12.289 383.783 0 368.679 0c-11.967 0-22.168 7.698-25.902 18.397a27.22 27.22 0 00-13.912-3.803c-15.104 0-27.393 12.289-27.393 27.394v23.323a23.952 23.952 0 00-9.078-1.776c-13.481 0-24.871 11.026-24.871 24.081l.057 144.879c.133 22.78 7.391 35.182 14.614 42.659-4.862 1.896-8.323 6.625-8.323 12.16v92.468a7.5 7.5 0 0015 0V289.26h12.526l.016.001.015-.001h144.311v57.038c-9.732 1.099-19.648 5.439-28.234 12.98-19.362-16.996-45.443-17.772-60.936-1.709-18.086 18.725-18.088 49.216-.004 67.972l.12.122 51.63 51.178c.192.19.394.37.605.539l.397.317c2.349 1.878 4.568 3.652 7.968 3.751a8.07 8.07 0 00.434 0c3.413-.098 5.677-1.911 7.867-3.666l.504-.403c.211-.168.414-.349.606-.539l19.043-18.877V497H288.87v-82.588a7.5 7.5 0 00-15 0v84.534c0 7.198 5.843 13.054 13.026 13.054h160.816c7.183 0 13.026-5.856 13.026-13.054v-55.852l17.603-17.419c.045-.044.089-.089.132-.134 18.085-18.756 18.083-49.248-.005-67.974zm-43.001-83.307H304.759c-1.369-1.248-2.911-2.37-4.507-3.522-7.395-5.338-17.523-12.649-17.673-38.29l-.057-144.835c0-4.751 4.705-9.078 9.871-9.078 5.005 0 9.078 4.072 9.078 9.078v45.285a7.5 7.5 0 0015 0v-90.91c0-6.834 5.56-12.394 12.393-12.394s12.393 5.56 12.393 12.394v92.497a7.5 7.5 0 0015 0V27.394c0-6.834 5.572-12.394 12.421-12.394 6.833 0 12.393 5.56 12.393 12.394V127.57a7.5 7.5 0 0015 0V52.53c0-6.834 5.56-12.394 12.393-12.394s12.393 5.56 12.393 12.394v135.137c-17.704 9.471-33.652 25.644-37.36 38.346a7.5 7.5 0 1014.399 4.203c2.142-7.338 15.346-22.642 33.617-31.118 2.612-1.211 4.344-3.924 4.344-6.804 0-12.347 5.405-23.435 14.458-29.659 6.208-4.268 13.237-5.388 19.276-3.07 3.458 1.328 3.454 1.968 3.448 2.777-.024 3.247-2.358 9.386-5.312 17.159-5.121 13.471-12.86 33.828-18.165 63.839-1.856 10.598-6.599 20.984-14.095 30.92zm32.271 140.805l-50.233 49.765-50.2-49.76c-12.486-13.015-12.47-34.117.056-47.084 11.292-11.709 29.386-7.222 40.687 2.955.791.709 1.421 1.31 1.935 1.799 1.787 1.7 3.998 3.803 7.474 3.803h.097c3.476 0 5.687-2.104 7.474-3.804.514-.489 1.144-1.09 1.945-1.808 6.95-6.259 16.484-10.357 25.427-9.855.196.022.396.031.597.038 5.365.427 10.491 2.537 14.684 6.876 12.52 12.962 12.538 34.06.057 47.075z"/></svg>